<mxfile host="app.diagrams.net" agent="Mozilla/5.0 (Windows NT 10.0; Win64; x64) AppleWebKit/537.36 (KHTML, like Gecko) Chrome/135.0.0.0 Safari/537.36" version="26.2.12">
  <diagram name="Page-1" id="-INtnt6nJpWCdBllM_7E">
    <mxGraphModel dx="1142" dy="622" grid="1" gridSize="10" guides="1" tooltips="1" connect="1" arrows="1" fold="1" page="1" pageScale="1" pageWidth="827" pageHeight="1169" math="0" shadow="0">
      <root>
        <mxCell id="0" />
        <mxCell id="1" parent="0" />
        <mxCell id="1VDHJ9EC_oSdjaOROFJa-1" value="SI - Fenêtre principale" style="swimlane;whiteSpace=wrap;html=1;" vertex="1" parent="1">
          <mxGeometry x="230" y="190" width="456" height="810" as="geometry" />
        </mxCell>
        <mxCell id="1VDHJ9EC_oSdjaOROFJa-5" value="Créer un nouveau projet" style="ellipse;whiteSpace=wrap;html=1;" vertex="1" parent="1VDHJ9EC_oSdjaOROFJa-1">
          <mxGeometry x="20" y="40" width="100" height="60" as="geometry" />
        </mxCell>
        <mxCell id="1VDHJ9EC_oSdjaOROFJa-8" value="Dessiner la situation initiale (robot + espace restreint" style="ellipse;whiteSpace=wrap;html=1;aspect=fixed;" vertex="1" parent="1VDHJ9EC_oSdjaOROFJa-1">
          <mxGeometry x="10" y="190" width="120" height="120" as="geometry" />
        </mxCell>
        <mxCell id="1VDHJ9EC_oSdjaOROFJa-10" value="Importer un projet" style="ellipse;whiteSpace=wrap;html=1;" vertex="1" parent="1VDHJ9EC_oSdjaOROFJa-1">
          <mxGeometry x="290" y="40" width="100" height="60" as="geometry" />
        </mxCell>
        <mxCell id="1VDHJ9EC_oSdjaOROFJa-13" value="Sauvegarder le projet (en un .json)" style="ellipse;whiteSpace=wrap;html=1;" vertex="1" parent="1VDHJ9EC_oSdjaOROFJa-1">
          <mxGeometry x="140" y="40" width="120" height="60" as="geometry" />
        </mxCell>
        <mxCell id="1VDHJ9EC_oSdjaOROFJa-17" value="" style="edgeStyle=orthogonalEdgeStyle;rounded=0;orthogonalLoop=1;jettySize=auto;html=1;dashed=1;dashPattern=1 2;" edge="1" parent="1VDHJ9EC_oSdjaOROFJa-1" source="1VDHJ9EC_oSdjaOROFJa-16" target="1VDHJ9EC_oSdjaOROFJa-8">
          <mxGeometry relative="1" as="geometry" />
        </mxCell>
        <mxCell id="1VDHJ9EC_oSdjaOROFJa-18" value="extends" style="edgeLabel;html=1;align=center;verticalAlign=middle;resizable=0;points=[];" vertex="1" connectable="0" parent="1VDHJ9EC_oSdjaOROFJa-17">
          <mxGeometry x="0.0138" y="1" relative="1" as="geometry">
            <mxPoint y="9" as="offset" />
          </mxGeometry>
        </mxCell>
        <mxCell id="1VDHJ9EC_oSdjaOROFJa-16" value="Générer l&#39;EVP automatiquement" style="ellipse;whiteSpace=wrap;html=1;" vertex="1" parent="1VDHJ9EC_oSdjaOROFJa-1">
          <mxGeometry x="226" y="210.0000000000001" width="120" height="80" as="geometry" />
        </mxCell>
        <mxCell id="1VDHJ9EC_oSdjaOROFJa-19" value="Conception" style="swimlane;whiteSpace=wrap;html=1;" vertex="1" parent="1VDHJ9EC_oSdjaOROFJa-1">
          <mxGeometry x="10" y="160" width="350" height="230" as="geometry" />
        </mxCell>
        <mxCell id="1VDHJ9EC_oSdjaOROFJa-20" value="Modifier l&#39;EVP généré" style="ellipse;whiteSpace=wrap;html=1;" vertex="1" parent="1VDHJ9EC_oSdjaOROFJa-19">
          <mxGeometry x="130" y="150" width="120" height="60" as="geometry" />
        </mxCell>
        <mxCell id="1VDHJ9EC_oSdjaOROFJa-22" value="" style="edgeStyle=orthogonalEdgeStyle;rounded=0;orthogonalLoop=1;jettySize=auto;html=1;dashed=1;dashPattern=1 2;" edge="1" parent="1VDHJ9EC_oSdjaOROFJa-1" source="1VDHJ9EC_oSdjaOROFJa-16" target="1VDHJ9EC_oSdjaOROFJa-20">
          <mxGeometry relative="1" as="geometry">
            <mxPoint x="312" y="310" as="sourcePoint" />
            <mxPoint x="216" y="310" as="targetPoint" />
            <Array as="points">
              <mxPoint x="286" y="300" />
              <mxPoint x="206" y="300" />
              <mxPoint x="206" y="290" />
              <mxPoint x="190" y="290" />
            </Array>
          </mxGeometry>
        </mxCell>
        <mxCell id="1VDHJ9EC_oSdjaOROFJa-23" value="extends" style="edgeLabel;html=1;align=center;verticalAlign=middle;resizable=0;points=[];" vertex="1" connectable="0" parent="1VDHJ9EC_oSdjaOROFJa-22">
          <mxGeometry x="0.0138" y="1" relative="1" as="geometry">
            <mxPoint y="9" as="offset" />
          </mxGeometry>
        </mxCell>
        <mxCell id="1VDHJ9EC_oSdjaOROFJa-24" value="Créer une tâche" style="ellipse;whiteSpace=wrap;html=1;" vertex="1" parent="1VDHJ9EC_oSdjaOROFJa-1">
          <mxGeometry x="50" y="420" width="120" height="80" as="geometry" />
        </mxCell>
        <mxCell id="1VDHJ9EC_oSdjaOROFJa-27" value="Sélectionner une ouverture existante" style="ellipse;whiteSpace=wrap;html=1;" vertex="1" parent="1VDHJ9EC_oSdjaOROFJa-1">
          <mxGeometry x="326" y="410" width="120" height="60" as="geometry" />
        </mxCell>
        <mxCell id="1VDHJ9EC_oSdjaOROFJa-29" value="Créer une nouvelle ouverture" style="ellipse;whiteSpace=wrap;html=1;" vertex="1" parent="1VDHJ9EC_oSdjaOROFJa-1">
          <mxGeometry x="326" y="500" width="120" height="60" as="geometry" />
        </mxCell>
        <mxCell id="1VDHJ9EC_oSdjaOROFJa-30" value="Assigner une ouverture à la tâche" style="ellipse;whiteSpace=wrap;html=1;" vertex="1" parent="1VDHJ9EC_oSdjaOROFJa-1">
          <mxGeometry x="196" y="440" width="120" height="80" as="geometry" />
        </mxCell>
        <mxCell id="1VDHJ9EC_oSdjaOROFJa-33" value="" style="endArrow=classic;html=1;rounded=0;strokeColor=default;dashed=1;dashPattern=1 1;" edge="1" parent="1VDHJ9EC_oSdjaOROFJa-1" source="1VDHJ9EC_oSdjaOROFJa-30" target="1VDHJ9EC_oSdjaOROFJa-24">
          <mxGeometry width="50" height="50" relative="1" as="geometry">
            <mxPoint x="176" y="370" as="sourcePoint" />
            <mxPoint x="226" y="320" as="targetPoint" />
          </mxGeometry>
        </mxCell>
        <mxCell id="1VDHJ9EC_oSdjaOROFJa-34" value="extends" style="edgeLabel;html=1;align=center;verticalAlign=middle;resizable=0;points=[];" vertex="1" connectable="0" parent="1VDHJ9EC_oSdjaOROFJa-33">
          <mxGeometry x="-0.26" relative="1" as="geometry">
            <mxPoint y="-11" as="offset" />
          </mxGeometry>
        </mxCell>
        <mxCell id="1VDHJ9EC_oSdjaOROFJa-37" value="" style="shape=flexArrow;endArrow=classic;html=1;rounded=0;" edge="1" parent="1VDHJ9EC_oSdjaOROFJa-1" source="1VDHJ9EC_oSdjaOROFJa-27" target="1VDHJ9EC_oSdjaOROFJa-30">
          <mxGeometry width="50" height="50" relative="1" as="geometry">
            <mxPoint x="176" y="370" as="sourcePoint" />
            <mxPoint x="226" y="320" as="targetPoint" />
          </mxGeometry>
        </mxCell>
        <mxCell id="1VDHJ9EC_oSdjaOROFJa-38" value="" style="shape=flexArrow;endArrow=classic;html=1;rounded=0;" edge="1" parent="1VDHJ9EC_oSdjaOROFJa-1" source="1VDHJ9EC_oSdjaOROFJa-29" target="1VDHJ9EC_oSdjaOROFJa-30">
          <mxGeometry width="50" height="50" relative="1" as="geometry">
            <mxPoint x="176" y="370" as="sourcePoint" />
            <mxPoint x="226" y="320" as="targetPoint" />
          </mxGeometry>
        </mxCell>
        <mxCell id="1VDHJ9EC_oSdjaOROFJa-39" value="Modifier une tâche" style="ellipse;whiteSpace=wrap;html=1;" vertex="1" parent="1VDHJ9EC_oSdjaOROFJa-1">
          <mxGeometry x="43" y="530" width="120" height="70" as="geometry" />
        </mxCell>
        <mxCell id="1VDHJ9EC_oSdjaOROFJa-41" value="Risque" style="swimlane;whiteSpace=wrap;html=1;" vertex="1" parent="1VDHJ9EC_oSdjaOROFJa-1">
          <mxGeometry x="26" y="640" width="154" height="150" as="geometry" />
        </mxCell>
        <mxCell id="1VDHJ9EC_oSdjaOROFJa-42" value="Générer les risques potentiels de chaque ouverture" style="ellipse;whiteSpace=wrap;html=1;" vertex="1" parent="1VDHJ9EC_oSdjaOROFJa-41">
          <mxGeometry x="20" y="40" width="120" height="80" as="geometry" />
        </mxCell>
        <mxCell id="1VDHJ9EC_oSdjaOROFJa-47" value="Générer les moyens de prévention des risques de chaque ouverture" style="ellipse;whiteSpace=wrap;html=1;" vertex="1" parent="1VDHJ9EC_oSdjaOROFJa-1">
          <mxGeometry x="191" y="580" width="130" height="80" as="geometry" />
        </mxCell>
        <mxCell id="1VDHJ9EC_oSdjaOROFJa-2" value="Utilisateur" style="shape=umlActor;verticalLabelPosition=bottom;verticalAlign=top;html=1;outlineConnect=0;" vertex="1" parent="1">
          <mxGeometry x="50" y="290" width="100" height="200" as="geometry" />
        </mxCell>
        <mxCell id="1VDHJ9EC_oSdjaOROFJa-6" value="" style="endArrow=classic;html=1;rounded=0;" edge="1" parent="1" source="1VDHJ9EC_oSdjaOROFJa-2" target="1VDHJ9EC_oSdjaOROFJa-5">
          <mxGeometry width="50" height="50" relative="1" as="geometry">
            <mxPoint x="410" y="340" as="sourcePoint" />
            <mxPoint x="460" y="290" as="targetPoint" />
          </mxGeometry>
        </mxCell>
        <mxCell id="1VDHJ9EC_oSdjaOROFJa-7" value="" style="endArrow=classic;html=1;rounded=0;" edge="1" parent="1" source="1VDHJ9EC_oSdjaOROFJa-2" target="1VDHJ9EC_oSdjaOROFJa-8">
          <mxGeometry width="50" height="50" relative="1" as="geometry">
            <mxPoint x="410" y="340" as="sourcePoint" />
            <mxPoint x="230" y="380" as="targetPoint" />
          </mxGeometry>
        </mxCell>
        <mxCell id="1VDHJ9EC_oSdjaOROFJa-11" value="" style="endArrow=classic;html=1;rounded=0;" edge="1" parent="1" source="1VDHJ9EC_oSdjaOROFJa-2" target="1VDHJ9EC_oSdjaOROFJa-10">
          <mxGeometry width="50" height="50" relative="1" as="geometry">
            <mxPoint x="410" y="480" as="sourcePoint" />
            <mxPoint x="460" y="430" as="targetPoint" />
          </mxGeometry>
        </mxCell>
        <mxCell id="1VDHJ9EC_oSdjaOROFJa-12" value="" style="endArrow=classic;html=1;rounded=0;" edge="1" parent="1" source="1VDHJ9EC_oSdjaOROFJa-2" target="1VDHJ9EC_oSdjaOROFJa-16">
          <mxGeometry width="50" height="50" relative="1" as="geometry">
            <mxPoint x="410" y="480" as="sourcePoint" />
            <mxPoint x="460" y="430" as="targetPoint" />
          </mxGeometry>
        </mxCell>
        <mxCell id="1VDHJ9EC_oSdjaOROFJa-15" value="" style="endArrow=classic;html=1;rounded=0;" edge="1" parent="1" source="1VDHJ9EC_oSdjaOROFJa-2" target="1VDHJ9EC_oSdjaOROFJa-13">
          <mxGeometry width="50" height="50" relative="1" as="geometry">
            <mxPoint x="410" y="410" as="sourcePoint" />
            <mxPoint x="460" y="360" as="targetPoint" />
          </mxGeometry>
        </mxCell>
        <mxCell id="1VDHJ9EC_oSdjaOROFJa-21" value="" style="endArrow=classic;html=1;rounded=0;" edge="1" parent="1" source="1VDHJ9EC_oSdjaOROFJa-2" target="1VDHJ9EC_oSdjaOROFJa-20">
          <mxGeometry width="50" height="50" relative="1" as="geometry">
            <mxPoint x="390" y="400" as="sourcePoint" />
            <mxPoint x="440" y="350" as="targetPoint" />
          </mxGeometry>
        </mxCell>
        <mxCell id="1VDHJ9EC_oSdjaOROFJa-25" value="" style="endArrow=classic;html=1;rounded=0;" edge="1" parent="1" source="1VDHJ9EC_oSdjaOROFJa-2" target="1VDHJ9EC_oSdjaOROFJa-24">
          <mxGeometry width="50" height="50" relative="1" as="geometry">
            <mxPoint x="390" y="480" as="sourcePoint" />
            <mxPoint x="440" y="430" as="targetPoint" />
          </mxGeometry>
        </mxCell>
        <mxCell id="1VDHJ9EC_oSdjaOROFJa-36" value="" style="endArrow=classic;html=1;rounded=0;" edge="1" parent="1" source="1VDHJ9EC_oSdjaOROFJa-2" target="1VDHJ9EC_oSdjaOROFJa-30">
          <mxGeometry width="50" height="50" relative="1" as="geometry">
            <mxPoint x="390" y="570" as="sourcePoint" />
            <mxPoint x="440" y="520" as="targetPoint" />
          </mxGeometry>
        </mxCell>
        <mxCell id="1VDHJ9EC_oSdjaOROFJa-40" value="" style="endArrow=classic;html=1;rounded=0;" edge="1" parent="1" source="1VDHJ9EC_oSdjaOROFJa-2" target="1VDHJ9EC_oSdjaOROFJa-39">
          <mxGeometry width="50" height="50" relative="1" as="geometry">
            <mxPoint x="460" y="680" as="sourcePoint" />
            <mxPoint x="510" y="630" as="targetPoint" />
          </mxGeometry>
        </mxCell>
        <mxCell id="1VDHJ9EC_oSdjaOROFJa-45" value="" style="endArrow=classic;html=1;rounded=0;" edge="1" parent="1" source="1VDHJ9EC_oSdjaOROFJa-2" target="1VDHJ9EC_oSdjaOROFJa-42">
          <mxGeometry width="50" height="50" relative="1" as="geometry">
            <mxPoint x="460" y="680" as="sourcePoint" />
            <mxPoint x="510" y="630" as="targetPoint" />
          </mxGeometry>
        </mxCell>
        <mxCell id="1VDHJ9EC_oSdjaOROFJa-48" value="" style="endArrow=classic;html=1;rounded=0;" edge="1" parent="1" source="1VDHJ9EC_oSdjaOROFJa-2" target="1VDHJ9EC_oSdjaOROFJa-47">
          <mxGeometry width="50" height="50" relative="1" as="geometry">
            <mxPoint x="460" y="760" as="sourcePoint" />
            <mxPoint x="510" y="710" as="targetPoint" />
          </mxGeometry>
        </mxCell>
      </root>
    </mxGraphModel>
  </diagram>
</mxfile>
